<svg width="76" height="76" viewBox="0 0 76 76" fill="none" xmlns="http://www.w3.org/2000/svg">
<path d="M48.5545 30.0833C48.5568 27.6416 47.7527 25.2674 46.2671 23.3296C44.7815 21.3918 42.6976 19.9988 40.339 19.367C37.9804 18.7352 35.4791 18.8999 33.2238 19.8357C30.9684 20.7714 29.0852 22.4257 27.8667 24.5417C27.4467 25.2694 27.3331 26.1341 27.5508 26.9457C27.7684 27.7572 28.2995 28.449 29.0272 28.8689C29.755 29.2889 30.6197 29.4025 31.4312 29.1848C32.2428 28.9672 32.9346 28.4361 33.3545 27.7083C33.7717 26.9858 34.3718 26.3859 35.0944 25.969C35.8171 25.552 36.6368 25.3328 37.4712 25.3333C38.7309 25.3333 39.9391 25.8338 40.8299 26.7246C41.7207 27.6154 42.2212 28.8236 42.2212 30.0833C42.2212 31.3431 41.7207 32.5513 40.8299 33.4421C39.9391 34.3329 38.7309 34.8333 37.4712 34.8333H37.4617C37.2576 34.8549 37.0561 34.8963 36.86 34.9568C36.6473 34.9778 36.4372 35.0202 36.233 35.0835C36.0594 35.1788 35.895 35.2901 35.7422 35.416C35.5602 35.5151 35.3884 35.6317 35.2292 35.7643C35.0867 35.9345 34.9625 36.1192 34.8587 36.3153C34.7432 36.4582 34.6405 36.6107 34.5515 36.7713C34.482 36.9895 34.4363 37.2146 34.4153 37.4427C34.3618 37.6248 34.3247 37.8113 34.3045 38V41.1667L34.3108 41.2015V42.7563C34.3125 43.5951 34.6469 44.3989 35.2406 44.9914C35.8342 45.5839 36.6387 45.9167 37.4775 45.9167H37.487C37.9029 45.9158 38.3145 45.8331 38.6983 45.6732C39.0822 45.5133 39.4309 45.2793 39.7243 44.9847C40.0178 44.6901 40.2503 44.3405 40.4087 43.956C40.5671 43.5715 40.6482 43.1595 40.6473 42.7437L40.641 40.6473C42.921 39.9722 44.9224 38.5796 46.348 36.6765C47.7737 34.7734 48.5474 32.4612 48.5545 30.0833ZM35.245 51.585C34.8003 52.026 34.4964 52.589 34.3717 53.2028C34.247 53.8165 34.3071 54.4534 34.5443 55.033C34.7816 55.6126 35.1854 56.1089 35.7047 56.459C36.2239 56.8091 36.8354 56.9974 37.4617 57C38.3007 56.9915 39.1049 56.663 39.71 56.0817C40.298 55.481 40.6272 54.6739 40.6272 53.8333C40.6272 52.9928 40.298 52.1857 39.71 51.585C39.1039 51.0201 38.3061 50.7059 37.4775 50.7059C36.6489 50.7059 35.8511 51.0201 35.245 51.585Z" fill="#242424"/>
</svg>
